PathFileType	4	(X/Y/Z)	/Users/niels/Desktop/University/Third Semester/Perception and Action/Exam/Gymnastics Motion Tracking/Code for Gym Tracking/Analyzed Data/Webcam_Backflip/id19_3_trajectory_Sports2D/id19_3_trajectory_Sports2D_px_person00.trc
DataRate	CameraRate	NumFrames	NumMarkers	Units	OrigDataRate	OrigDataStartFrame	OrigNumFrames
29.714285714285715	29.714285714285715	11	22	m	29.714285714285715	65	105
Frame#	Time	Hip			RHip			RKnee			RAnkle			RBigToe			RSmallToe			RHeel			LHip			LKnee			LAnkle			LBigToe			LSmallToe			LHeel			Neck			Head			Nose			RShoulder			RElbow			RWrist			LShoulder			LElbow			LWrist		
		X1	Y1	Z1	X2	Y2	Z2	X3	Y3	Z3	X4	Y4	Z4	X5	Y5	Z5	X6	Y6	Z6	X7	Y7	Z7	X8	Y8	Z8	X9	Y9	Z9	X10	Y10	Z10	X11	Y11	Z11	X12	Y12	Z12	X13	Y13	Z13	X14	Y14	Z14	X15	Y15	Z15	X16	Y16	Z16	X17	Y17	Z17	X18	Y18	Z18	X19	Y19	Z19	X20	Y20	Z20	X21	Y21	Z21	X22	Y22	Z22
65	2.1875	0.8899076385976726	-0.4032896919232595	0.0	0.8918859070363911	-0.4033935362413646	0.0	0.7859053808374424	-0.3967084323188283	0.0	0.7783298651776397	-0.3080752112828909	0.0	0.7300234187818969	-0.3094469776922154	0.0	0.7363691329178952	-0.30236398189562097	0.0	0.780111350697146	-0.2932678163222022	0.0	0.8813980101389667	-0.40408388812210894	0.0	0.7817213845368384	-0.3929099149494831	0.0	0.7664487254122052	-0.3068049846334676	0.0	0.7271944631915394	-0.31006335496083387	0.0	0.7298344950742228	-0.3109837813257344	0.0	0.7760809610497741	-0.2903284535053762	0.0	0.8095523762001247	-0.5164452290462254	0.0	0.7520898972193973	-0.5383787569697968	0.0	0.7664561181667239	-0.5072340311944595	0.0	0.8263702914899914	-0.5018287281619634	0.0	0.8593458776179768	-0.4269758327792348	0.0	0.8106452400532512	-0.39170286759642714	0.0	0.8256443343414173	-0.5120222018438502	0.0	0.8553792175683255	-0.43232598197109506	0.0	0.8138844254425046	-0.4018936825305422	0.0
66	2.2211538461538463	0.8737606308206893	-0.3942061477732103	0.0	0.8734794080099306	-0.39451815346883773	0.0	0.7707561968606069	-0.42873992100347075	0.0	0.7267898933488962	-0.35216549950804926	0.0	0.681723231205834	-0.373148177761533	0.0	0.6845391108996555	-0.36406113876379315	0.0	0.7224185993334038	-0.3344768970529502	0.0	0.867152853928553	-0.39701563456293787	0.0	0.7680146534197908	-0.422512853161187	0.0	0.7155652454465941	-0.34932000365007543	0.0	0.6788568101457712	-0.3737942962309536	0.0	0.6803841588804401	-0.3728153338560016	0.0	0.7188543729767193	-0.330258536473637	0.0	0.8318797080652063	-0.5289185209724243	0.0	0.7856038455050143	-0.5712000566021693	0.0	0.7864143255825548	-0.5361268442856237	0.0	0.8459664996924489	-0.5103456472052786	0.0	0.8587684131028931	-0.430518289994571	0.0	0.802125538851293	-0.41503272530972124	0.0	0.8473396363120452	-0.5206784626669164	0.0	0.8571208836729443	-0.4386227688693489	0.0	0.8094117492251685	-0.42502191033355	0.0
67	2.254807692307692	0.8536805530363509	-0.39473664385107265	0.0	0.8509990680640266	-0.3947861838323467	0.0	0.761233381429566	-0.4645410321845846	0.0	0.6875385352771203	-0.413442813137834	0.0	0.6528221037500094	-0.45104793221857836	0.0	0.6513290899017268	-0.4413142067982686	0.0	0.677313937997888	-0.39576713148429815	0.0	0.8494139072605109	-0.3995641299323584	0.0	0.7609477148684702	-0.45713298826541193	0.0	0.6803172284123669	-0.40958959032542996	0.0	0.6532707253809236	-0.4516869637235318	0.0	0.6536597116912073	-0.44855997174366646	0.0	0.67662710891104	-0.3911792379870186	0.0	0.8545109792637602	-0.5366480705490461	0.0	0.8241683685960965	-0.5952349954487013	0.0	0.8119483044778371	-0.559841964389189	0.0	0.864207719832465	-0.5154617197547814	0.0	0.856557488311919	-0.43427339491302636	0.0	0.7982038476851019	-0.4409615499709106	0.0	0.8671299425406552	-0.5256599551991692	0.0	0.8565976616399098	-0.4481590218764849	0.0	0.8067846943733656	-0.45248168443282577	0.0
68	2.2884615384615383	0.8311571235461327	-0.406276369290097	0.0	0.826104390192589	-0.4052672283517051	0.0	0.7550482705271958	-0.5021278965114029	0.0	0.6626366849609575	-0.4858034817419126	0.0	0.643023462055594	-0.5347942814111892	0.0	0.6370256476417049	-0.5257512701849337	0.0	0.6476574392134017	-0.4713381328339755	0.0	0.8294419516826077	-0.41295011441792034	0.0	0.7585970094918865	-0.49591105283108944	0.0	0.6631975214132634	-0.48242176991516056	0.0	0.6506062171446426	-0.5355096430842566	0.0	0.6499715826486973	-0.5306978397982568	0.0	0.6531560319626103	-0.4681870949029926	0.0	0.8747086340190167	-0.5397144211151637	0.0	0.8635221923299172	-0.6086732943092109	0.0	0.8399758613455351	-0.5762150406705013	0.0	0.8793905348802414	-0.5173251954743022	0.0	0.854096562352743	-0.4386420190067555	0.0	0.8019698123046636	-0.4672860024500069	0.0	0.8826642371392113	-0.5275534991703812	0.0	0.8543728251655146	-0.46180046696713856	0.0	0.8075607619449872	-0.4831606271004165	0.0
69	2.3221153846153846	0.8079274714130185	-0.42899275988640717	0.0	0.8007470831281911	-0.4262547860187577	0.0	0.7501432064323263	-0.5412463931338498	0.0	0.6519203428708059	-0.5633341482193641	0.0	0.6492723550271859	-0.6172545740131454	0.0	0.6393135552526463	-0.6100371447833662	0.0	0.634111599337379	-0.5545356676179991	0.0	0.8090000778858821	-0.4370808926887861	0.0	0.7590864369458163	-0.5383697747913345	0.0	0.6633310901422705	-0.5617509008921264	0.0	0.6669160040011947	-0.6180807507286257	0.0	0.6653570762067026	-0.6124080630181566	0.0	0.6489967472977096	-0.5542570328911206	0.0	0.8900533253719707	-0.5393464040953109	0.0	0.8990149613427392	-0.612064057914335	0.0	0.8667127147500676	-0.5850798822156577	0.0	0.890138381754139	-0.516808059687092	0.0	0.8515279489945049	-0.44387887179510616	0.0	0.8129779028867751	-0.4910815463572974	0.0	0.892348564488005	-0.52746642652535	0.0	0.850009870870384	-0.4789902880077269	0.0	0.8112565499143989	-0.5141439710506794	0.0
70	2.355769230769231	0.7859093519491855	-0.46198155392870327	0.0	0.7772062717948313	-0.4574874366988326	0.0	0.7458899072600668	-0.5826419597489543	0.0	0.6534747591598351	-0.6414637863620201	0.0	0.6671814330172915	-0.6942144632615771	0.0	0.6544044218094821	-0.6895325189771359	0.0	0.6349980497100337	-0.6393933374769901	0.0	0.7899683441500999	-0.47072193096988485	0.0	0.7611277347103709	-0.583756066673511	0.0	0.676844306296734	-0.6414382790158561	0.0	0.6953342354897117	-0.6946249660247082	0.0	0.6928572736768511	-0.6888320857218748	0.0	0.6607491159213534	-0.6415398196514507	0.0	0.8986612787809292	-0.5375769960321488	0.0	0.9267810802618017	-0.6078771265193885	0.0	0.8885347906639453	-0.5880836015591413	0.0	0.8952035768873888	-0.5156467122976699	0.0	0.8475629684378055	-0.45074359338498615	0.0	0.8268045736472303	-0.510017732964224	0.0	0.8951587962229767	-0.5268341019481783	0.0	0.8421830089151069	-0.4978347200293609	0.0	0.8147779112096053	-0.5414130877444644	0.0
71	2.3894230769230766	0.7670001427023796	-0.5035341385211574	0.0	0.7577296038851076	-0.49805141814436826	0.0	0.7432846024778055	-0.6271306872435183	0.0	0.6642752170912827	-0.7170260433185158	0.0	0.6921064481916374	-0.7642899293237291	0.0	0.6780226763458953	-0.7623130790423314	0.0	0.6467795063479279	-0.7212943171108138	0.0	0.7738825504065342	-0.5118801739253537	0.0	0.7640736924367861	-0.631098433222549	0.0	0.6981113674171252	-0.7166384825690705	0.0	0.7280608315640718	-0.7631081596429443	0.0	0.7243851348534173	-0.7576906178354722	0.0	0.6819681305446399	-0.7235100482206598	0.0	0.8993064839424755	-0.5367979994875621	0.0	0.9443627762145017	-0.5995834817349978	0.0	0.9025958516750283	-0.5879495243879975	0.0	0.893243850177222	-0.5162029510786748	0.0	0.8398914044714755	-0.4612505922298519	0.0	0.836059263630861	-0.5247904867173404	0.0	0.8905269779995957	-0.5273287613410449	0.0	0.8293023994775	-0.51679173127266	0.0	0.8131094747379045	-0.5623578362444501	0.0
72	2.423076923076923	0.7525764547368384	-0.5514225784716905	0.0	0.7437527400282568	-0.5460455436123554	0.0	0.7437119328031863	-0.6747526700260267	0.0	0.6803775247065592	-0.7877023212061453	0.0	0.719279128812289	-0.8275676507682268	0.0	0.70560367046717	-0.8278935842071501	0.0	0.664659744369648	-0.796832877809441	0.0	0.7616555222251044	-0.5583449306253134	0.0	0.7676825492753506	-0.6795643471540443	0.0	0.7214852316410236	-0.7849239410848571	0.0	0.7585059368284304	-0.8236652208361643	0.0	0.7530639738270064	-0.8188954674102278	0.0	0.7055876955688878	-0.7965473108695552	0.0	0.8916258916721789	-0.5393354846075932	0.0	0.950670547488085	-0.5906263260362341	0.0	0.9072947290156728	-0.5876291992540933	0.0	0.8831087131211914	-0.5208557139810652	0.0	0.8261225624079802	-0.47864029463719143	0.0	0.8333224128876879	-0.5401659173110926	0.0	0.8785995311945859	-0.5309817288494371	0.0	0.8107964345259026	-0.5369555999739629	0.0	0.802424955573889	-0.5789677989959492	0.0
73	2.456730769230769	0.743102795354881	-0.6029510965663252	0.0	0.7353428743095642	-0.5984565553012232	0.0	0.7475150464165696	-0.7243322740723899	0.0	0.6973845189932765	-0.8516645673322744	0.0	0.7442086702663785	-0.8843571906396757	0.0	0.7325745474596504	-0.8861239988430261	0.0	0.6835114211460324	-0.8635844630608449	0.0	0.753540600902074	-0.6078237976674693	0.0	0.7718251256796553	-0.7283813753678658	0.0	0.7425903303406964	-0.8459282727919353	0.0	0.7826633852200566	-0.8773819705246106	0.0	0.7749479258082846	-0.873366604213243	0.0	0.7261261173768352	-0.8597663974859973	0.0	0.8763872009134777	-0.5470218945539038	0.0	0.9458702657000857	-0.5835628774012444	0.0	0.9026283884372964	-0.5895286662206028	0.0	0.8647526119574857	-0.5314259990535437	0.0	0.8049971483521302	-0.5058262324609415	0.0	0.8154110368360725	-0.5618322847240488	0.0	0.8606177451672741	-0.5401183851803097	0.0	0.7886598360281971	-0.5616748610088083	0.0	0.7837435402585395	-0.5976541181521483	0.0
74	2.4903846153846154	0.7380036325741018	-0.6548238298252815	0.0	0.7311544849402114	-0.6514689772052212	0.0	0.7534078388115739	-0.773617231788267	0.0	0.711563184666328	-0.9074457892515462	0.0	0.7637437581530393	-0.9344291293679062	0.0	0.7549595599793172	-0.9366681795264024	0.0	0.6992011449818075	-0.9200383456989122	0.0	0.74917149610529	-0.6576074516938392	0.0	0.7762067897329897	-0.7761822333717541	0.0	0.7588469171596498	-0.8997775836102843	0.0	0.7993309631977581	-0.9247860109789354	0.0	0.7893684582874587	-0.9215503238514742	0.0	0.7407202346221449	-0.9134826248777135	0.0	0.855486381135118	-0.5605877540528715	0.0	0.9313743048982592	-0.5797018822603754	0.0	0.8901523374777975	-0.5948827844563627	0.0	0.8397757764818615	-0.5485742362553659	0.0	0.7773025254901447	-0.5430066871165781	0.0	0.786142577093369	-0.5915333987876205	0.0	0.8389889100956859	-0.5563871642088954	0.0	0.7673613278550492	-0.5931042181530191	0.0	0.7626101471467224	-0.62426220261425	0.0
75	2.5240384615384612	0.7356639287013472	-0.7032436101836117	0.0	0.7287510255282917	-0.7009710203693192	0.0	0.7587406104368444	-0.8195858016031464	0.0	0.7210504479558337	-0.9537784906868036	0.0	0.7765889160606436	-0.9768261225772712	0.0	0.769887174701319	-0.9788937733415973	0.0	0.709782093049348	-0.9655358794878887	0.0	0.7474705006156593	-0.7043851273166697	0.0	0.7801293586467428	-0.8203995281568035	0.0	0.7696079755943908	-0.9457428284825973	0.0	0.8094105210933802	-0.9650099501928079	0.0	0.7979964695670411	-0.9625756663226716	0.0	0.7495773153218278	-0.9577502836927156	0.0	0.8314870473674854	-0.5791064740369372	0.0	0.9096734056656526	-0.5792772271452966	0.0	0.8723981216437399	-0.603512123049694	0.0	0.810959264844223	-0.5712204495900927	0.0	0.7460951831431344	-0.5864744460979091	0.0	0.7539431046796139	-0.625967025224253	0.0	0.8165737347908805	-0.5792678361771592	0.0	0.751004275970186	-0.6293720457815551	0.0	0.7444949982997565	-0.659097747570455	0.0
